<mxfile host="app.diagrams.net" modified="2022-05-29T06:03:48.890Z" agent="5.0 (Windows NT 10.0; Win64; x64) AppleWebKit/537.36 (KHTML, like Gecko) Chrome/102.0.0.0 Safari/537.36" etag="J9tyrIO1a2GxZnM8pbRV" version="18.1.3" type="github">
  <diagram id="cWkrB9_cxno7mnPyrp2e" name="Page-1">
    <mxGraphModel dx="1422" dy="800" grid="1" gridSize="10" guides="1" tooltips="1" connect="1" arrows="1" fold="1" page="1" pageScale="1" pageWidth="827" pageHeight="1169" math="1" shadow="0">
      <root>
        <mxCell id="0" />
        <mxCell id="1" parent="0" />
        <mxCell id="387f95KcHtH2254FsAIH-3" value="" style="group" vertex="1" connectable="0" parent="1">
          <mxGeometry x="250" y="220" width="80" height="140" as="geometry" />
        </mxCell>
        <mxCell id="387f95KcHtH2254FsAIH-1" value="" style="rounded=1;whiteSpace=wrap;html=1;fillColor=#f8cecc;strokeColor=#b85450;" vertex="1" parent="387f95KcHtH2254FsAIH-3">
          <mxGeometry width="80" height="140" as="geometry" />
        </mxCell>
        <mxCell id="387f95KcHtH2254FsAIH-2" value="&lt;font style=&quot;font-size: 18px;&quot;&gt;A ::= BC&lt;/font&gt;" style="text;html=1;strokeColor=none;fillColor=none;align=center;verticalAlign=middle;whiteSpace=wrap;rounded=0;" vertex="1" parent="387f95KcHtH2254FsAIH-3">
          <mxGeometry y="50" width="80" height="30" as="geometry" />
        </mxCell>
        <mxCell id="387f95KcHtH2254FsAIH-5" style="edgeStyle=orthogonalEdgeStyle;rounded=0;orthogonalLoop=1;jettySize=auto;html=1;exitX=1;exitY=0.5;exitDx=0;exitDy=0;entryX=0;entryY=0.5;entryDx=0;entryDy=0;fontSize=18;" edge="1" parent="1" source="387f95KcHtH2254FsAIH-4" target="387f95KcHtH2254FsAIH-1">
          <mxGeometry relative="1" as="geometry" />
        </mxCell>
        <mxCell id="387f95KcHtH2254FsAIH-4" value="$$e_h:v_0 \xrightarrow{B}v_1$$" style="text;html=1;strokeColor=none;fillColor=none;align=center;verticalAlign=middle;whiteSpace=wrap;rounded=0;fontSize=18;" vertex="1" parent="1">
          <mxGeometry x="90" y="277" width="110" height="25" as="geometry" />
        </mxCell>
        <mxCell id="387f95KcHtH2254FsAIH-7" style="edgeStyle=orthogonalEdgeStyle;rounded=0;orthogonalLoop=1;jettySize=auto;html=1;entryX=0.5;entryY=0;entryDx=0;entryDy=0;fontSize=18;" edge="1" parent="1" source="387f95KcHtH2254FsAIH-6" target="387f95KcHtH2254FsAIH-1">
          <mxGeometry relative="1" as="geometry" />
        </mxCell>
        <mxCell id="387f95KcHtH2254FsAIH-6" value="$$e_v:v_1 \xrightarrow{C}v_2$$" style="text;html=1;strokeColor=none;fillColor=none;align=center;verticalAlign=middle;whiteSpace=wrap;rounded=0;fontSize=18;" vertex="1" parent="1">
          <mxGeometry x="235" y="150" width="110" height="40" as="geometry" />
        </mxCell>
        <mxCell id="387f95KcHtH2254FsAIH-8" value="$$v_0 \xrightarrow{A}v_2$$" style="text;html=1;strokeColor=none;fillColor=none;align=center;verticalAlign=middle;whiteSpace=wrap;rounded=0;fontSize=18;" vertex="1" parent="1">
          <mxGeometry x="150" y="420" width="110" height="25" as="geometry" />
        </mxCell>
        <mxCell id="387f95KcHtH2254FsAIH-9" style="rounded=0;orthogonalLoop=1;jettySize=auto;html=1;exitX=0.25;exitY=1;exitDx=0;exitDy=0;fontSize=18;entryX=0.75;entryY=0;entryDx=0;entryDy=0;" edge="1" parent="1" source="387f95KcHtH2254FsAIH-1" target="387f95KcHtH2254FsAIH-8">
          <mxGeometry relative="1" as="geometry" />
        </mxCell>
        <mxCell id="387f95KcHtH2254FsAIH-10" style="edgeStyle=none;rounded=0;orthogonalLoop=1;jettySize=auto;html=1;exitX=0.75;exitY=1;exitDx=0;exitDy=0;fontSize=18;" edge="1" parent="1" source="387f95KcHtH2254FsAIH-1">
          <mxGeometry relative="1" as="geometry">
            <mxPoint x="350" y="420" as="targetPoint" />
          </mxGeometry>
        </mxCell>
        <mxCell id="387f95KcHtH2254FsAIH-11" value="" style="group" vertex="1" connectable="0" parent="1">
          <mxGeometry x="650" y="210" width="80" height="140" as="geometry" />
        </mxCell>
        <mxCell id="387f95KcHtH2254FsAIH-12" value="" style="rounded=1;whiteSpace=wrap;html=1;fillColor=#f8cecc;strokeColor=#b85450;" vertex="1" parent="387f95KcHtH2254FsAIH-11">
          <mxGeometry width="80" height="140" as="geometry" />
        </mxCell>
        <mxCell id="387f95KcHtH2254FsAIH-13" value="&lt;font style=&quot;font-size: 18px;&quot;&gt;D ::= EE&lt;/font&gt;" style="text;html=1;strokeColor=none;fillColor=none;align=center;verticalAlign=middle;whiteSpace=wrap;rounded=0;" vertex="1" parent="387f95KcHtH2254FsAIH-11">
          <mxGeometry y="50" width="80" height="30" as="geometry" />
        </mxCell>
        <mxCell id="387f95KcHtH2254FsAIH-14" style="edgeStyle=orthogonalEdgeStyle;rounded=0;orthogonalLoop=1;jettySize=auto;html=1;exitX=1;exitY=0.5;exitDx=0;exitDy=0;entryX=0;entryY=0.5;entryDx=0;entryDy=0;fontSize=18;" edge="1" parent="1" source="387f95KcHtH2254FsAIH-15" target="387f95KcHtH2254FsAIH-12">
          <mxGeometry relative="1" as="geometry" />
        </mxCell>
        <mxCell id="387f95KcHtH2254FsAIH-15" value="$$e_h:v_0 \xrightarrow{E}v_1$$" style="text;html=1;strokeColor=none;fillColor=none;align=center;verticalAlign=middle;whiteSpace=wrap;rounded=0;fontSize=18;" vertex="1" parent="1">
          <mxGeometry x="490" y="267" width="110" height="25" as="geometry" />
        </mxCell>
        <mxCell id="387f95KcHtH2254FsAIH-16" style="edgeStyle=orthogonalEdgeStyle;rounded=0;orthogonalLoop=1;jettySize=auto;html=1;entryX=0.5;entryY=0;entryDx=0;entryDy=0;fontSize=18;" edge="1" parent="1" source="387f95KcHtH2254FsAIH-17" target="387f95KcHtH2254FsAIH-12">
          <mxGeometry relative="1" as="geometry" />
        </mxCell>
        <mxCell id="387f95KcHtH2254FsAIH-17" value="$$e_v:v_1 \xrightarrow{E}v_0$$" style="text;html=1;strokeColor=none;fillColor=none;align=center;verticalAlign=middle;whiteSpace=wrap;rounded=0;fontSize=18;" vertex="1" parent="1">
          <mxGeometry x="635" y="140" width="110" height="40" as="geometry" />
        </mxCell>
        <mxCell id="387f95KcHtH2254FsAIH-18" value="$$v_0 \xrightarrow{D}v_0$$" style="text;html=1;strokeColor=none;fillColor=none;align=center;verticalAlign=middle;whiteSpace=wrap;rounded=0;fontSize=18;" vertex="1" parent="1">
          <mxGeometry x="550" y="410" width="110" height="25" as="geometry" />
        </mxCell>
        <mxCell id="387f95KcHtH2254FsAIH-19" style="rounded=0;orthogonalLoop=1;jettySize=auto;html=1;exitX=0.25;exitY=1;exitDx=0;exitDy=0;fontSize=18;entryX=0.75;entryY=0;entryDx=0;entryDy=0;" edge="1" parent="1" source="387f95KcHtH2254FsAIH-12" target="387f95KcHtH2254FsAIH-18">
          <mxGeometry relative="1" as="geometry" />
        </mxCell>
        <mxCell id="387f95KcHtH2254FsAIH-20" style="edgeStyle=none;rounded=0;orthogonalLoop=1;jettySize=auto;html=1;exitX=0.75;exitY=1;exitDx=0;exitDy=0;fontSize=18;" edge="1" parent="1" source="387f95KcHtH2254FsAIH-12">
          <mxGeometry relative="1" as="geometry">
            <mxPoint x="750" y="410" as="targetPoint" />
          </mxGeometry>
        </mxCell>
        <mxCell id="387f95KcHtH2254FsAIH-21" value="$$v_1 \xrightarrow{D}v_1$$" style="text;html=1;strokeColor=none;fillColor=none;align=center;verticalAlign=middle;whiteSpace=wrap;rounded=0;fontSize=18;" vertex="1" parent="1">
          <mxGeometry x="717" y="410" width="110" height="25" as="geometry" />
        </mxCell>
        <mxCell id="387f95KcHtH2254FsAIH-22" value="" style="group" vertex="1" connectable="0" parent="1">
          <mxGeometry x="260" y="580" width="80" height="140" as="geometry" />
        </mxCell>
        <mxCell id="387f95KcHtH2254FsAIH-23" value="" style="rounded=1;whiteSpace=wrap;html=1;fillColor=#f8cecc;strokeColor=#b85450;" vertex="1" parent="387f95KcHtH2254FsAIH-22">
          <mxGeometry width="80" height="140" as="geometry" />
        </mxCell>
        <mxCell id="387f95KcHtH2254FsAIH-24" value="&lt;font style=&quot;font-size: 18px;&quot;&gt;A ::= BC&lt;/font&gt;" style="text;html=1;strokeColor=none;fillColor=none;align=center;verticalAlign=middle;whiteSpace=wrap;rounded=0;" vertex="1" parent="387f95KcHtH2254FsAIH-22">
          <mxGeometry y="50" width="80" height="30" as="geometry" />
        </mxCell>
        <mxCell id="387f95KcHtH2254FsAIH-25" style="edgeStyle=orthogonalEdgeStyle;rounded=0;orthogonalLoop=1;jettySize=auto;html=1;exitX=1;exitY=0.5;exitDx=0;exitDy=0;entryX=0;entryY=0.5;entryDx=0;entryDy=0;fontSize=18;" edge="1" parent="1" source="387f95KcHtH2254FsAIH-26" target="387f95KcHtH2254FsAIH-23">
          <mxGeometry relative="1" as="geometry" />
        </mxCell>
        <mxCell id="387f95KcHtH2254FsAIH-26" value="$$e_h:v_0 \xrightarrow{D}v_1$$" style="text;html=1;strokeColor=none;fillColor=none;align=center;verticalAlign=middle;whiteSpace=wrap;rounded=0;fontSize=18;" vertex="1" parent="1">
          <mxGeometry x="100" y="637" width="110" height="25" as="geometry" />
        </mxCell>
        <mxCell id="387f95KcHtH2254FsAIH-27" style="edgeStyle=orthogonalEdgeStyle;rounded=0;orthogonalLoop=1;jettySize=auto;html=1;entryX=0.5;entryY=0;entryDx=0;entryDy=0;fontSize=18;" edge="1" parent="1" source="387f95KcHtH2254FsAIH-28" target="387f95KcHtH2254FsAIH-23">
          <mxGeometry relative="1" as="geometry" />
        </mxCell>
        <mxCell id="387f95KcHtH2254FsAIH-28" value="$$e_v:v_1 \xrightarrow{B}v_2$$" style="text;html=1;strokeColor=none;fillColor=none;align=center;verticalAlign=middle;whiteSpace=wrap;rounded=0;fontSize=18;" vertex="1" parent="1">
          <mxGeometry x="245" y="510" width="110" height="40" as="geometry" />
        </mxCell>
        <mxCell id="387f95KcHtH2254FsAIH-30" style="rounded=0;orthogonalLoop=1;jettySize=auto;html=1;exitX=0.25;exitY=1;exitDx=0;exitDy=0;fontSize=18;entryX=0.75;entryY=0;entryDx=0;entryDy=0;" edge="1" parent="1" source="387f95KcHtH2254FsAIH-23">
          <mxGeometry relative="1" as="geometry">
            <mxPoint x="242.5" y="780" as="targetPoint" />
          </mxGeometry>
        </mxCell>
        <mxCell id="387f95KcHtH2254FsAIH-31" style="edgeStyle=none;rounded=0;orthogonalLoop=1;jettySize=auto;html=1;exitX=0.75;exitY=1;exitDx=0;exitDy=0;fontSize=18;" edge="1" parent="1" source="387f95KcHtH2254FsAIH-23">
          <mxGeometry relative="1" as="geometry">
            <mxPoint x="360" y="780" as="targetPoint" />
          </mxGeometry>
        </mxCell>
      </root>
    </mxGraphModel>
  </diagram>
</mxfile>
